<?xml version="1.0" encoding="UTF-8" standalone="no"?>
<!DOCTYPE svg PUBLIC "-//W3C//DTD SVG 1.1//EN" "http://www.w3.org/Graphics/SVG/1.1/DTD/svg11.dtd">
<svg width="100%" height="100%" viewBox="0 0 511 511" version="1.1" xmlns="http://www.w3.org/2000/svg" xmlns:xlink="http://www.w3.org/1999/xlink" xml:space="preserve" xmlns:serif="http://www.serif.com/" style="fill-rule:evenodd;clip-rule:evenodd;stroke-linejoin:round;stroke-miterlimit:1.41421;">
    <path d="M450.642,194.381C450.642,262.802 415.289,322.958 361.862,357.593C353.815,362.821 347.094,369.835 342.365,378.178L272.556,501.499C272.397,501.772 272.241,502.034 272.061,502.299C264.603,514.158 246.982,513.897 239.964,501.499L170.155,378.178C165.438,369.847 158.728,362.829 150.689,357.625C96.495,322.506 60.889,261.138 61.898,191.516C63.493,80.682 159.212,-8.487 272.081,0.643C372.038,8.682 450.642,92.351 450.642,194.381Z" style="fill:rgb(68,191,215);fill-rule:nonzero;"/>
    <path d="M450.642,194.381C450.642,262.802 415.289,322.958 361.862,357.593C353.815,362.821 347.094,369.835 342.365,378.178L272.556,501.499C272.397,501.772 272.241,502.034 272.061,502.299C271.882,502.034 271.722,501.772 271.566,501.499L201.757,378.178C197.04,369.847 190.327,362.829 182.292,357.625C128.093,322.506 92.491,261.138 93.5,191.516C94.943,91.236 173.442,8.651 272.081,0.643C372.038,8.682 450.642,92.351 450.642,194.381Z" style="fill:rgb(124,210,227);fill-rule:nonzero;"/>
    <path d="M399.784,194.151C399.784,273.434 335.5,337.675 256.26,337.675C176.993,337.675 112.736,273.418 112.736,194.151C112.736,108.951 186.693,42.132 272.061,51.501C343.89,59.372 399.784,120.234 399.784,194.151Z" style="fill:rgb(194,234,242);fill-rule:nonzero;"/>
    <path d="M399.784,194.151C399.784,268.077 343.89,328.942 272.061,336.81C200.229,328.942 144.339,268.077 144.339,194.151C144.339,120.234 200.229,59.372 272.061,51.501C343.89,59.372 399.784,120.234 399.784,194.151Z" style="fill:rgb(222,244,248);fill-rule:nonzero;"/>
    <g transform="matrix(4.38408,0,0,4.38408,364.111,187.434)">
        <path d="M0,3.198C0,1.23 -1.379,-0.365 -3.08,-0.365L-9.015,-0.365C-10.715,-0.365 -12.094,1.23 -12.094,3.198L-12.094,5.312C-12.094,7.28 -10.715,8.876 -9.015,8.876L-3.08,8.876C-1.379,8.876 0,7.28 0,5.312L0,3.198ZM-16.502,3.198C-16.502,1.23 -17.881,-0.365 -19.582,-0.365L-25.517,-0.365C-27.218,-0.365 -28.596,1.23 -28.596,3.198L-28.596,5.312C-28.596,7.28 -27.218,8.876 -25.517,8.876L-19.582,8.876C-17.881,8.876 -16.502,7.28 -16.502,5.312L-16.502,3.198ZM-32.788,3.523C-32.788,1.555 -34.167,-0.038 -35.868,-0.038L-41.803,-0.038C-43.503,-0.038 -44.881,1.555 -44.881,3.523L-44.881,5.637C-44.881,7.605 -43.503,9.2 -41.803,9.2L-35.868,9.2C-34.167,9.2 -32.788,7.605 -32.788,5.637L-32.788,3.523ZM-44.004,-19.77C-44.001,-17.793 -43.998,-15.818 -43.997,-13.841C-43.995,-12.915 -43.91,-11.992 -43.824,-10.273C-37.818,-13.364 -32.253,-16.23 -26.206,-19.343L-26.206,-9.579C-20.27,-13.068 -14.958,-16.191 -8.993,-19.697L-8.993,-8.5C-3.097,-12.341 2.053,-15.697 7.579,-19.298C7.644,-17.912 7.732,-16.927 7.732,-15.943C7.744,-5.56 7.76,4.825 7.727,15.207C7.72,17.279 7.791,18.981 10.229,18.936C10.67,18.928 11.426,20.279 11.48,21.055C11.516,21.569 10.626,22.323 10.025,22.692C9.599,22.953 8.959,22.749 8.415,22.749C-13.794,22.752 -36.004,22.752 -58.212,22.749C-58.847,22.749 -59.597,22.968 -60.086,22.654C-60.669,22.28 -61.029,21.44 -61.485,20.802C-60.987,20.337 -60.433,19.411 -59.998,19.481C-56.735,20.007 -56.589,17.831 -56.6,14.952C-56.629,7.044 -56.631,-0.864 -56.631,-8.771" style="fill:rgb(86,91,91);"/>
    </g>
    <g transform="matrix(4.38408,0,0,4.38408,360.111,182.434)">
        <path d="M0,3.198C0,1.23 -1.379,-0.365 -3.08,-0.365L-9.015,-0.365C-10.715,-0.365 -12.094,1.23 -12.094,3.198L-12.094,5.312C-12.094,7.28 -10.715,8.876 -9.015,8.876L-3.08,8.876C-1.379,8.876 0,7.28 0,5.312L0,3.198ZM-16.502,3.198C-16.502,1.23 -17.881,-0.365 -19.582,-0.365L-25.517,-0.365C-27.218,-0.365 -28.596,1.23 -28.596,3.198L-28.596,5.312C-28.596,7.28 -27.218,8.876 -25.517,8.876L-19.582,8.876C-17.881,8.876 -16.502,7.28 -16.502,5.312L-16.502,3.198ZM-32.788,3.523C-32.788,1.555 -34.167,-0.038 -35.868,-0.038L-41.803,-0.038C-43.503,-0.038 -44.881,1.555 -44.881,3.523L-44.881,5.637C-44.881,7.605 -43.503,9.2 -41.803,9.2L-35.868,9.2C-34.167,9.2 -32.788,7.605 -32.788,5.637L-32.788,3.523ZM-44.004,-19.77C-44.001,-17.793 -43.998,-15.818 -43.997,-13.841C-43.995,-12.915 -43.91,-11.992 -43.824,-10.273C-37.818,-13.364 -32.253,-16.23 -26.206,-19.343L-26.206,-9.579C-20.27,-13.068 -14.958,-16.191 -8.993,-19.697L-8.993,-8.5C-3.097,-12.341 2.053,-15.697 7.579,-19.298C7.644,-17.912 7.732,-16.927 7.732,-15.943C7.744,-5.56 7.76,4.825 7.727,15.207C7.72,17.279 7.791,18.981 10.229,18.936C10.67,18.928 11.426,20.279 11.48,21.055C11.516,21.569 10.626,22.323 10.025,22.692C9.599,22.953 8.959,22.749 8.415,22.749C-13.794,22.752 -36.004,22.752 -58.212,22.749C-58.847,22.749 -59.597,22.968 -60.086,22.654C-60.669,22.28 -61.029,21.44 -61.485,20.802C-60.987,20.337 -60.433,19.411 -59.998,19.481C-56.735,20.007 -56.589,17.831 -56.6,14.952C-56.629,7.044 -56.631,-0.864 -56.631,-8.771" style="fill:rgb(39,54,56);"/>
    </g>
</svg>
