<?xml version="1.0" encoding="UTF-8" standalone="no"?>
<!DOCTYPE svg PUBLIC "-//W3C//DTD SVG 1.1//EN" "http://www.w3.org/Graphics/SVG/1.1/DTD/svg11.dtd">
<svg width="100%" height="100%" viewBox="0 0 511 511" version="1.1" xmlns="http://www.w3.org/2000/svg" xmlns:xlink="http://www.w3.org/1999/xlink" xml:space="preserve" xmlns:serif="http://www.serif.com/" style="fill-rule:evenodd;clip-rule:evenodd;stroke-linejoin:round;stroke-miterlimit:1.41421;">
    <path d="M450.642,194.381C450.642,262.802 415.289,322.958 361.862,357.593C353.815,362.821 347.094,369.835 342.365,378.178L272.556,501.499C272.397,501.772 272.241,502.034 272.061,502.299C264.603,514.158 246.982,513.897 239.964,501.499L170.155,378.178C165.438,369.847 158.728,362.829 150.689,357.625C96.495,322.506 60.889,261.138 61.898,191.516C63.493,80.682 159.212,-8.487 272.081,0.643C372.038,8.682 450.642,92.351 450.642,194.381Z" style="fill:rgb(168,177,168);fill-rule:nonzero;"/>
    <path d="M450.642,194.381C450.642,262.802 415.289,322.958 361.862,357.593C353.815,362.821 347.094,369.835 342.365,378.178L272.556,501.499C272.397,501.772 272.241,502.034 272.061,502.299C271.882,502.034 271.722,501.772 271.566,501.499L201.757,378.178C197.04,369.847 190.327,362.829 182.292,357.625C128.093,322.506 92.491,261.138 93.5,191.516C94.943,91.236 173.442,8.651 272.081,0.643C372.038,8.682 450.642,92.351 450.642,194.381Z" style="fill:rgb(186,193,186);fill-rule:nonzero;"/>
    <path d="M399.784,194.151C399.784,273.434 335.5,337.675 256.26,337.675C176.993,337.675 112.736,273.418 112.736,194.151C112.736,108.951 186.693,42.132 272.061,51.501C343.89,59.372 399.784,120.234 399.784,194.151Z" style="fill:rgb(212,212,212);fill-rule:nonzero;"/>
    <path d="M399.784,194.151C399.784,268.077 343.89,328.942 272.061,336.81C200.229,328.942 144.339,268.077 144.339,194.151C144.339,120.234 200.229,59.372 272.061,51.501C343.89,59.372 399.784,120.234 399.784,194.151Z" style="fill:rgb(216,216,216);fill-rule:nonzero;"/>
    <g transform="matrix(3.51448,0,0,3.51448,243.893,161.625)">
        <path d="M0,12.87C-2.568,9.196 -3.001,5.332 -3.134,1.258C-4.352,2.874 -5.347,4.553 -6.26,6.276C-6.42,6.577 -6.338,7.12 -6.175,7.46C-4.976,9.961 -3.421,12.108 0,12.87M-12.577,-5.953C-18.119,-4.686 -18.902,-3.822 -19.498,1.418C-19.504,1.469 -19.494,1.524 -19.511,1.571C-20.224,3.418 -19.112,4.121 -17.558,4.667C-15.918,1.169 -14.296,-2.288 -12.577,-5.953M-6.462,27.675C-6.462,25.932 -6.395,24.185 -6.478,22.446C-6.656,18.672 -8.479,15.531 -10.524,12.51C-10.756,12.169 -11.454,11.857 -11.802,11.965C-12.144,12.071 -12.498,12.718 -12.525,13.148C-12.64,14.933 -12.755,16.733 -12.633,18.511C-12.516,20.245 -12.834,21.707 -13.992,23.05C-15.295,24.56 -16.291,26.369 -17.729,27.717C-19.732,29.592 -19.777,31.532 -18.829,33.855C-18.51,34.637 -18.226,35.001 -17.344,34.987C-14.166,34.937 -10.985,34.921 -7.808,34.983C-6.668,35.006 -6.421,34.524 -6.446,33.52C-6.497,31.573 -6.462,29.623 -6.462,27.675M2.433,34.415C4.277,35.087 5.825,34.764 7.32,32.978C9.082,30.874 11.107,28.797 14.091,28.233C14.872,28.085 15.069,27.564 14.403,26.907C13.722,26.234 13.093,25.508 12.353,24.71C13.155,23.965 13.838,23.331 14.634,22.593C9.033,19.894 3.595,17.274 -1.629,14.757C-1.348,18.246 -1.04,21.688 -0.808,25.135C-0.715,26.513 -0.695,27.912 -0.818,29.286C-0.935,30.573 -0.418,31.334 0.562,32.096C1.324,32.689 1.819,33.629 2.433,34.415M50.155,37.376L48.089,37.376C18.746,37.376 -10.598,37.379 -39.941,37.347C-40.532,37.346 -41.469,37.078 -41.648,36.671C-42.162,35.499 -41.642,34.922 -40.285,34.919C-35.565,34.907 -30.847,34.913 -26.127,34.913L-24.092,34.913C-25.333,33.61 -26.332,32.561 -27.438,31.401C-26.838,30.558 -26.269,29.729 -25.669,28.923C-23.527,26.045 -21.357,23.189 -19.243,20.291C-18.87,19.78 -18.531,19.12 -18.49,18.509C-18.265,15.083 -18.121,11.651 -17.979,8.221C-17.932,7.047 -19.545,5.934 -21.065,6.035C-23.595,6.202 -24.112,5.683 -23.718,3.175C-23.312,0.6 -22.937,-1.992 -22.299,-4.513C-22.068,-5.423 -21.275,-6.45 -20.452,-6.904C-17.361,-8.607 -14.187,-10.173 -10.969,-11.624C-9.793,-12.154 -8.417,-12.297 -7.114,-12.483C-4.644,-12.835 -4.137,-13.628 -5.075,-15.896C-6.054,-18.264 -5.424,-21.084 -3.565,-22.648C-1.711,-24.21 1.314,-24.509 3.363,-23.333C5.643,-22.026 6.631,-19.572 6.031,-16.71C5.515,-14.238 3.562,-12.52 1.021,-12.191C0.425,-12.113 -0.517,-11.863 -0.621,-11.497C-0.781,-10.943 -0.5,-10.111 -0.134,-9.588C0.99,-7.981 1.63,-6.261 1.626,-4.293C1.623,-2.446 1.893,-0.569 1.643,1.24C0.961,6.19 3.566,10.098 5.402,14.283C6.062,15.788 6.99,16.763 8.533,17.374C10.958,18.334 13.313,19.476 15.676,20.585C16.409,20.929 16.929,20.891 17.601,20.356C18.717,19.467 19.972,18.752 21.337,17.851C21.953,18.78 22.531,19.654 23.182,20.637C24.255,19.389 25.271,18.135 26.366,16.954C27.129,16.131 27.946,15.337 28.832,14.65C32.653,11.683 35.368,11.94 38.527,15.584C42.606,20.288 45.298,25.815 47.771,31.459C48.585,33.318 49.292,35.224 50.155,37.376" style="fill:rgb(112,112,112);"/>
    </g>
    <g transform="matrix(3.51448,0,0,3.51448,240.893,158.625)">
        <path d="M0,12.87C-2.568,9.196 -3.001,5.332 -3.134,1.258C-4.352,2.874 -5.347,4.553 -6.26,6.276C-6.42,6.577 -6.338,7.12 -6.175,7.46C-4.976,9.961 -3.421,12.108 0,12.87M-12.577,-5.953C-18.119,-4.686 -18.902,-3.822 -19.498,1.418C-19.504,1.469 -19.494,1.524 -19.511,1.571C-20.224,3.418 -19.112,4.121 -17.558,4.667C-15.918,1.169 -14.296,-2.288 -12.577,-5.953M-6.462,27.675C-6.462,25.932 -6.395,24.185 -6.478,22.446C-6.656,18.672 -8.479,15.531 -10.524,12.51C-10.756,12.169 -11.454,11.857 -11.802,11.965C-12.144,12.071 -12.498,12.718 -12.525,13.148C-12.64,14.933 -12.755,16.733 -12.633,18.511C-12.516,20.245 -12.834,21.707 -13.992,23.05C-15.295,24.56 -16.291,26.369 -17.729,27.717C-19.732,29.592 -19.777,31.532 -18.829,33.855C-18.51,34.637 -18.226,35.001 -17.344,34.987C-14.166,34.937 -10.985,34.921 -7.808,34.983C-6.668,35.006 -6.421,34.524 -6.446,33.52C-6.497,31.573 -6.462,29.623 -6.462,27.675M2.433,34.415C4.277,35.087 5.825,34.764 7.32,32.978C9.082,30.874 11.107,28.797 14.091,28.233C14.872,28.085 15.069,27.564 14.403,26.907C13.722,26.234 13.093,25.508 12.353,24.71C13.155,23.965 13.838,23.331 14.634,22.593C9.033,19.894 3.595,17.274 -1.629,14.757C-1.348,18.246 -1.04,21.688 -0.808,25.135C-0.715,26.513 -0.695,27.912 -0.818,29.286C-0.935,30.573 -0.418,31.334 0.562,32.096C1.324,32.689 1.819,33.629 2.433,34.415M50.155,37.376L48.089,37.376C18.746,37.376 -10.598,37.379 -39.941,37.347C-40.532,37.346 -41.469,37.078 -41.648,36.671C-42.162,35.499 -41.642,34.922 -40.285,34.919C-35.565,34.907 -30.847,34.913 -26.127,34.913L-24.092,34.913C-25.333,33.61 -26.332,32.561 -27.438,31.401C-26.838,30.558 -26.269,29.729 -25.669,28.923C-23.527,26.045 -21.357,23.189 -19.243,20.291C-18.87,19.78 -18.531,19.12 -18.49,18.509C-18.265,15.083 -18.121,11.651 -17.979,8.221C-17.932,7.047 -19.545,5.934 -21.065,6.035C-23.595,6.202 -24.112,5.683 -23.718,3.175C-23.312,0.6 -22.937,-1.992 -22.299,-4.513C-22.068,-5.423 -21.275,-6.45 -20.452,-6.904C-17.361,-8.607 -14.187,-10.173 -10.969,-11.624C-9.793,-12.154 -8.417,-12.297 -7.114,-12.483C-4.644,-12.835 -4.137,-13.628 -5.075,-15.896C-6.054,-18.264 -5.424,-21.084 -3.565,-22.648C-1.711,-24.21 1.314,-24.509 3.363,-23.333C5.643,-22.026 6.631,-19.572 6.031,-16.71C5.515,-14.238 3.562,-12.52 1.021,-12.191C0.425,-12.113 -0.517,-11.863 -0.621,-11.497C-0.781,-10.943 -0.5,-10.111 -0.134,-9.588C0.99,-7.981 1.63,-6.261 1.626,-4.293C1.623,-2.446 1.893,-0.569 1.643,1.24C0.961,6.19 3.566,10.098 5.402,14.283C6.062,15.788 6.99,16.763 8.533,17.374C10.958,18.334 13.313,19.476 15.676,20.585C16.409,20.929 16.929,20.891 17.601,20.356C18.717,19.467 19.972,18.752 21.337,17.851C21.953,18.78 22.531,19.654 23.182,20.637C24.255,19.389 25.271,18.135 26.366,16.954C27.129,16.131 27.946,15.337 28.832,14.65C32.653,11.683 35.368,11.94 38.527,15.584C42.606,20.288 45.298,25.815 47.771,31.459C48.585,33.318 49.292,35.224 50.155,37.376" style="fill:rgb(39,54,56);"/>
    </g>
</svg>
